<?xml version="1.0" encoding="utf-8"?>
<!-- Generator: Adobe Illustrator 16.0.0, SVG Export Plug-In . SVG Version: 6.00 Build 0)  -->
<!DOCTYPE svg PUBLIC "-//W3C//DTD SVG 1.1//EN" "http://www.w3.org/Graphics/SVG/1.1/DTD/svg11.dtd" [
	<!ENTITY ns_extend "http://ns.adobe.com/Extensibility/1.0/">
	<!ENTITY ns_ai "http://ns.adobe.com/AdobeIllustrator/10.0/">
	<!ENTITY ns_graphs "http://ns.adobe.com/Graphs/1.0/">
	<!ENTITY ns_vars "http://ns.adobe.com/Variables/1.0/">
	<!ENTITY ns_imrep "http://ns.adobe.com/ImageReplacement/1.0/">
	<!ENTITY ns_sfw "http://ns.adobe.com/SaveForWeb/1.0/">
	<!ENTITY ns_custom "http://ns.adobe.com/GenericCustomNamespace/1.0/">
	<!ENTITY ns_adobe_xpath "http://ns.adobe.com/XPath/1.0/">
]>
<svg version="1.1" id="Layer_1" xmlns:x="&ns_extend;" xmlns:i="&ns_ai;" xmlns:graph="&ns_graphs;"
	 xmlns="http://www.w3.org/2000/svg" xmlns:xlink="http://www.w3.org/1999/xlink" x="0px" y="0px" width="130px" height="78px"
	 viewBox="0 0 500 300" xml:space="preserve">
<metadata>
	<sfw  xmlns="&ns_sfw;">
		<slices></slices>
		<sliceSourceBounds  width="734.39" height="237.328" x="29.862" y="184.141" bottomLeftOrigin="true"></sliceSourceBounds>
	</sfw>
</metadata>
<g>
	<path fill="none" stroke="#ffffff" stroke-width="1.9399" stroke-miterlimit="3.8635" d="M126.387,111.791v123.721
		c0,2.363-1.908,4.283-4.263,4.283H83.345c-2.593-0.063-4.467,4.27-4.467,4.27s-1.882-4.334-4.591-4.27
		c0.003-0.004-38.689,0-38.689,0c-2.354,0-4.263-1.92-4.263-4.283L31.332,111.8L126.387,111.791L126.387,111.791z"/>
	<path fill="none" stroke="#ffffff" stroke-width="0.9654" stroke-miterlimit="3.8637" d="M93.118,131.491l-3.777-6.022
		c-4.525,1.045-3.413-2.88-0.961-4.423c2.695-1.691,5.742-1.096,3.787,2.648c0,0,0.871,1.417,2.324,3.729
		C94.491,127.424,93.499,129.309,93.118,131.491L93.118,131.491z M109.83,151.686l10.293,16.346l-0.757,0.761l-3.608-2.862
		c0,0-0.22-2.39-0.793-2.882c-1.938-1.673-0.789-2.594-1.539-4.147c-0.749-1.547-5.147-2.741-6.17-5.067
		c0.019,0.112-1.694-2.717-1.694-2.717C109.486,150.424,109.83,151.686,109.83,151.686L109.83,151.686z M97.762,132.408
		c-0.017-0.035,3.659,6.018,3.644,5.939c-2.274-0.275-3.378-0.929-3.831-2.152C97.039,134.816,97.458,132.982,97.762,132.408
		L97.762,132.408z M42.747,189.96l8.036,20.292 M43.403,190.549l7.459,14.42 M43.949,190.77l6.784,10.179 M44.352,190.587
		l6.22,7.392 M44.275,189.9l9.006,8.512 M44.201,189.402l12.34,9.233 M44.008,188.979l18.118,10.638 M53.804,156.624l-0.275,6.271
		h3.654l-0.277-6.271H53.804L53.804,156.624z M56.838,154.9l-1.486-33.625l-1.52,33.625H56.838L56.838,154.9z M49.186,154.936H61.52
		v1.686H49.186V154.936L49.186,154.936z M59.242,162.904c0,2.521-1.742,4.265-3.891,4.265c-2.146,0-3.889-1.741-3.889-4.265H59.242
		L59.242,162.904z M49.692,139.633c0,3.221-2.661,5.832-5.942,5.832s-5.943-2.611-5.943-5.832H49.692L49.692,139.633z
		 M98.485,131.184c0,0,1.312,1.783,2.717,0.953c2.574-1.521-0.604-10.189-5.903-5.779c-1.165,0.973-2.723,5.478-2.421,8.365
		c0.303,2.892,1.586,6.545,4.842,7.301c1.966,0.457,5.882-0.637,7.508,2.041c1.209-0.453,2.531-5.229-0.847-5.387
		c-3.332-0.15-6.152-0.721-6.661-2.129C96.511,133.201,98.485,131.184,98.485,131.184L98.485,131.184z M101.486,144.738
		c-1.309,0.636-2.268,2.15-1.811,3.835c0.457,1.687,2.503,2.692,5.394,2.54c0.161-0.008,0.312-0.021,0.46-0.028
		c2.558-0.19,3.7-0.5,4.564,0.947c0.913-1.071,0.648-3.459-0.652-4.563C107.466,145.783,102.329,147.922,101.486,144.738
		L101.486,144.738z M107.204,153.866c-0.304,1.379-1.235,3.224-0.457,4.897c1.063,2.295,3.043,1.072,3.653,2.445
		c0.607,1.374,0.023,3.427,1.37,3.827c2.588,0.766,1.677,3.364,3.047,3.212c1.21-0.135,1.253-4.2,0-5.354
		c-1.828-1.686-0.611-2.908-1.522-4.285C112.378,157.232,109.029,156.62,107.204,153.866L107.204,153.866z"/>
	<path fill="none" stroke="#ffffff" stroke-width="0.6207" stroke-miterlimit="3.8637" d="M80.567,162.426
		c0-0.095,0.076-0.17,0.172-0.17c0.096,0,0.171,0.075,0.171,0.17c0,0.096-0.075,0.17-0.171,0.17
		C80.644,162.602,80.567,162.52,80.567,162.426L80.567,162.426z M99.833,128.152c0.247-0.088,0.539,0.094,0.652,0.406
		c0.113,0.315,0.005,0.646-0.237,0.735c-0.246,0.092-0.539-0.092-0.651-0.408C99.483,128.573,99.591,128.243,99.833,128.152
		L99.833,128.152z"/>
	<path fill="none" stroke="#ffffff" stroke-width="0.9654" stroke-miterlimit="3.8637" d="M52.724,210.262
		c0-4.869,3.923-8.808,8.765-8.808c4.842,0,8.765,3.938,8.765,8.808c0,4.861-3.923,8.807-8.765,8.807
		C56.646,219.068,52.724,215.123,52.724,210.262L52.724,210.262z M70.557,231.906h-4.265v-8.235H40.068v-4.213h30.487
		L70.557,231.906L70.557,231.906z M43.86,211.225c0-0.988,0.8-1.795,1.791-1.795c0.987,0,1.786,0.807,1.786,1.795
		c0,0.994-0.799,1.799-1.786,1.799C44.661,213.023,43.86,212.221,43.86,211.225L43.86,211.225z M43.939,210.71l-3.063,8.707
		l4.731-6.394 M47.359,210.71l3.061,8.707l-4.731-6.394 M53.981,206.121c-0.442,2.4,4.035,2.371,3.654,3.674
		c-0.918,3.135,0.913,3.021,1.218,4.666c0,0-0.305,3.898,0.76,4.209c0.61-0.84,0.154-2.486,0.913-3.367
		c0.801-0.916,1.904-1.418,1.904-3.057c0-1.191-1.65-1.568-2.134-1.914c-0.531-0.383-1.522-0.689-2.206-0.689
		c0,0-1.751-3.365-1.218-3.979c0.607-0.533,1.523,0.763,1.901,0.763c0.8,0,0.95-1.604,2.207-1.604c0-0.386-0.077-1.571-0.305-1.687
		c-1.257,0-2.053,0.614-3.122-0.688C57.559,202.441,54.426,203.712,53.981,206.121L53.981,206.121z M64.224,201.794
		c-0.98-0.376-2.477-0.228-2.477-0.228c1.296,0.613,1.22,2.33,1.752,2.33c1.068,0,1.599-0.877,2.664-1.067
		C66.166,202.829,65.203,202.17,64.224,201.794L64.224,201.794z M70.168,208.521c0-2.201-2.939-4.929-2.939-4.929
		s-1.446,2.679-0.764,5.433c0.686,0.074,2.665-0.152,2.665-0.152c0.497,0.229,0.304,1.033,0.304,1.527
		c0,1.227-0.381,4.361-0.381,4.361S70.168,210.729,70.168,208.521L70.168,208.521z"/>
	<polygon fill="none" stroke="#ffffff" stroke-width="0.6207" stroke-miterlimit="3.8637" points="42.479,185.217 41.584,187.148 
		39.521,187.396 41.032,188.823 40.625,190.885 42.45,189.878 44.318,190.9 43.951,188.803 45.42,187.396 43.356,187.107 	"/>
	
		<line fill="none" stroke="#ffffff" stroke-width="1.9399" stroke-miterlimit="3.8635" x1="78.859" y1="191.357" x2="78.859" y2="243.719"/>
	
		<path fill="none" stroke="#ffffff" stroke-width="0.9657" stroke-linecap="round" stroke-linejoin="round" stroke-miterlimit="3.8637" d="
		M86.419,216.828l-2.252,2.561c-0.301,0.351-0.142,2.717,0.01,3.396c1.778,0.713,26.972,8.637,26.972,8.637l10.248-11.168
		l-1.603-0.689c-0.453-0.73,0.998-3.19,0.998-3.19l-4.96-1.956 M111.163,226.467c-0.4,0.324-0.305,4.512,0.019,4.977
		c0.02,0,10.217-11.188,10.217-11.188l-1.059-0.964c-0.09-1.006,0.182-2.822,0.182-2.822L111.163,226.467L111.163,226.467z
		 M110.208,219.583c-0.42,0.19-0.67,5.677-0.1,5.713c0.002-0.005,8.416-9.56,8.416-9.56l-0.815-0.459L110.208,219.583
		L110.208,219.583z"/>
	
		<path fill="none" stroke="#ffffff" stroke-width="0.6204" stroke-linecap="round" stroke-linejoin="round" stroke-miterlimit="3.8637" d="
		M89.499,212.334l-2.629,2.686c-0.377,0.203-0.092,2.72,0,3.426c0.921,0.252,23.228,6.878,23.228,6.878l8.396-9.661l-2.663-0.954"/>
	<path fill="none" stroke="#ffffff" stroke-width="0.9654" stroke-miterlimit="3.8637" d="M113.857,198.35v15.994
		c-2.184-0.521-10.389-1.572-11.225-0.269c-0.683-1.304-7.278-0.716-11.238,0.166V198.85c-0.502,2.227-2.016,3.035-2.016,3.035
		v13.566l11.694-0.842c1.296,0.842,2.779,0.305,3.272,0.072l11.226,0.364v-15.187C115.571,199.864,114.461,199.768,113.857,198.35
		L113.857,198.35z M113.857,214.346c-2.388,0-9.512-1.914-11.188-0.23c1.522-0.037,1.563,0.953,0,0.994
		c-1.674-0.113-1.407-1.072,0-0.955c-1.447-1.877-11.255,0.388-11.255,0.388l-0.021-15.688c2.721,0,5.541-1.312,7.455-1.312
		s3.929,0.812,3.929,0.812s3.011-1.22,5.137-1.22c2.519,0,3.814,2.06,5.83,1.351C113.708,199.458,113.857,214.346,113.857,214.346
		L113.857,214.346z"/>
	
		<line fill="none" stroke="#ffffff" stroke-width="0.6207" stroke-miterlimit="3.8637" x1="102.744" y1="198.376" x2="102.648" y2="214.061"/>
	<path fill="none" stroke="#ffffff" stroke-width="0.6708" stroke-miterlimit="3.8637" d="M91.062,219.736l-0.842,0.852
		c-0.39,0.449-0.394,3.98,0.009,4.162c-0.009,0.059,1.823,0.529,1.01,0.159c-0.174-1.136-0.105-3.584,0.2-3.935l0.919-0.897
		L91.062,219.736L91.062,219.736z M93.993,220.577l-0.804,0.856c-0.388,0.441-0.549,4.073-0.144,4.25
		c-0.013,0.067,1.978,0.435,1.164,0.063c-0.178-1.137-0.106-3.584,0.2-3.936l0.851-0.85L93.993,220.577L93.993,220.577z
		 M101.112,222.682l-0.956,1.006c-0.389,0.449-0.595,3.894-0.189,4.072c-0.012,0.068,2.021,0.619,1.21,0.243
		c-0.177-1.128-0.106-3.582,0.199-3.935l1.032-1.043L101.112,222.682L101.112,222.682z M103.815,223.523l-0.956,1.01
		c-0.391,0.441-0.554,3.918-0.153,4.1c-0.011,0.063,1.983,0.588,1.171,0.217c-0.179-1.135-0.106-3.584,0.2-3.935l1.032-1.044
		L103.815,223.523L103.815,223.523z M91.06,215.359l-0.64,0.649c-0.295,0.341-0.354,3.3-0.048,3.438
		c-0.008,0.048,0.834,0.336,0.95,0.293c0.125-0.006-0.07-0.311-0.129-0.454c-0.134-0.861-0.078-2.724,0.154-2.99l0.695-0.675
		L91.06,215.359L91.06,215.359z"/>
	<path fill="none" stroke="#ffffff" stroke-width="0.9654" stroke-miterlimit="3.8637" d="M102.782,198.23
		c-3.042-0.076-3.874-2.506-3.874-2.506l1.183-0.054c0,0-1.485-0.903-1.155-1.791c-0.024-0.041,1.034,0.112,1.034,0.112
		s-0.446-1.217-0.042-2.021l0.947,0.396c0.272-1.619,1.948-1.996,1.948-1.996s1.561,0.21,2.018,1.996l0.947-0.396
		c0.404,0.803-0.033,2.021-0.033,2.021s1.058-0.153,1.034-0.112c0.331,0.888-1.156,1.791-1.156,1.791l1.186,0.054
		C106.817,195.725,105.825,198.156,102.782,198.23L102.782,198.23z"/>
	
		<line fill="none" stroke="#ffffff" stroke-width="1.9399" stroke-miterlimit="3.8635" x1="31.248" y1="176.564" x2="64.09" y2="176.564"/>
	
		<line fill="none" stroke="#ffffff" stroke-width="1.8699" stroke-miterlimit="3.8637" x1="93.757" y1="176.564" x2="126.336" y2="176.564"/>
	<polygon fill="none" stroke="#FFFFFF" stroke-width="0.9654" stroke-miterlimit="3.8637" points="78.904,164.432 89.378,182.852 
		68.338,182.852 	"/>
	<path fill="none" stroke="#ffffff" stroke-width="0.9654" stroke-miterlimit="3.8637" d="M78.814,173.537
		c3.791,0,7.087,3.119,7.046,3.613c0.035,0.466-3.257,3.59-7.046,3.59s-7.091-3.124-7.057-3.59
		C71.722,176.656,74.895,173.391,78.814,173.537L78.814,173.537z M75.281,177.139c0-1.959,1.58-3.545,3.528-3.545
		c1.949,0,3.53,1.59,3.53,3.545c0,1.957-1.581,3.549-3.53,3.549C76.86,180.684,75.281,179.096,75.281,177.139L75.281,177.139z"/>
	<path fill="#ffffff" stroke="#ffffff" stroke-width="0.6207" stroke-miterlimit="3.8637" d="M78.369,177.139
		c0-0.244,0.198-0.441,0.444-0.441c0.241,0,0.44,0.197,0.44,0.441c0,0.246-0.199,0.446-0.44,0.446
		C78.566,177.585,78.369,177.385,78.369,177.139L78.369,177.139z"/>
	<path fill="none" stroke="#ffffff" stroke-width="0.9654" stroke-miterlimit="3.8637" d="M78.916,164.042
		c-6.922,0-12.588,5.657-12.588,12.61c0,6.955,5.61,12.594,12.532,12.594c6.922,0,12.533-5.639,12.533-12.594
		c0-6.256-4.54-11.442-10.49-12.428c-2.214,0.162-2.327-0.646-2.405-1.063c-0.204-1.134,1.271-1.8,2.323-1.8
		c1.828,0,1.674,1.07,2.77,1.3c5.825,1.979,10.015,7.519,10.015,14.034c0,8.182-6.601,14.813-14.742,14.813
		c-8.143,0-14.742-6.633-14.742-14.813c0-8.184,6.12-14.493,14.344-13.881C78.333,163.354,78.916,164.042,78.916,164.042
		L78.916,164.042z"/>
	<polygon fill="none" stroke="#ffffff" stroke-width="1.7342" stroke-miterlimit="3.8635" points="78.839,59.692 74.329,68.811 
		64.136,70.287 71.483,77.577 69.967,87.458 78.839,82.951 87.713,87.458 86.083,77.486 93.198,70.504 83.421,68.903 	"/>
	<path fill="none" stroke="#ffffff" stroke-width="0.8952" stroke-miterlimit="3.8635" d="M78.839,60.019v22.932 M64.484,70.501
		l21.598,6.985 M69.967,87.458l13.452-18.555 M87.713,87.458L74.332,68.812 M93.198,70.504l-21.714,7.075"/>
	<path fill="none" stroke="#ffffff" stroke-width="1.7342" stroke-miterlimit="3.8635" d="M71.364,77.666L40.831,87.729
		 M116.709,62.724l-23.493,7.742 M74.303,68.791L55.444,42.766 M105.12,111.825L87.549,87.394 M83.435,68.875l18.768-26.223
		 M52.158,111.825l17.787-24.431 M64.388,70.474l-23.447-7.75 M116.598,87.729L86.199,77.544 M78.839,35.03v25.578"/>
	<path fill="none" stroke="#ffffff" stroke-width="0.8952" stroke-miterlimit="3.8635" d="M70.953,81.165l-12.545,9.072
		 M99.328,60.367l-12.341,9.009 M75.895,84.525l-4.809,14.868 M86.746,50.973l-4.771,14.75 M81.869,84.536l4.774,14.76
		 M70.976,50.838l4.852,15.001 M86.639,80.955l12.462,9.098 M58.181,60.176l12.437,9.079 M88.534,75.29l15.712,0.003 M53.547,75.29
		H69.02"/>
	<path fill="none" stroke="#ffffff" stroke-width="0.9654" stroke-miterlimit="3.8637" d="M104.612,143.311
		c0.69,1.021,2.094,3.402,2.054,3.402c0,0-3.311,0.229-4.489-0.88c-0.259-0.394-2.25-3.606-2.25-3.606
		S103.927,142.286,104.612,143.311L104.612,143.311z M43.736,126.102l-5.857,13.479l11.725,0.032L43.736,126.102L43.736,126.102z
		 M61.166,139.633c0,3.221,2.661,5.832,5.942,5.832c3.285,0,5.942-2.611,5.942-5.832H61.166L61.166,139.633z M67.12,126.102
		l5.859,13.479l-11.725,0.032L67.12,126.102L67.12,126.102z M53.639,162.014l3.504-1.646 M53.526,159.76l3.503-1.646"/>
	<path fill="none" stroke="#ffffff" stroke-width="0.6207" stroke-miterlimit="3.8637" d="M55.279,125.867H43.743v-1.375h11.423
		L55.279,125.867L55.279,125.867z M55.469,124.492h11.608v1.375H55.543L55.469,124.492L55.469,124.492z M94.413,201.809
		c1.598-0.053,3.661-1.635,5.95-0.871 M94.398,203.557c1.594-0.047,3.672-1.558,5.962-0.787 M94.382,205.311
		c1.597-0.047,3.685-1.483,5.975-0.719 M94.373,207.063c1.595-0.047,3.693-1.412,5.985-0.645 M94.357,208.816
		c1.596-0.047,3.708-1.336,5.995-0.573 M94.341,210.57c1.596-0.053,3.722-1.264,6.011-0.496 M111.106,201.293
		c-1.597-0.052-3.728-1.119-6.016-0.354 M111.109,203.139c-1.597-0.052-3.729-1.139-6.017-0.369 M111.111,204.986
		c-1.597-0.053-3.728-1.16-6.016-0.396 M111.111,206.832c-1.597-0.053-3.728-1.182-6.013-0.413 M111.116,208.678
		c-1.598-0.054-3.729-1.197-6.014-0.435 M111.118,210.521c-1.598-0.051-3.728-1.215-6.016-0.447"/>
	<polygon fill="none" stroke="#ffffff" stroke-width="0.9654" stroke-miterlimit="3.8637" points="78.904,164.432 89.378,182.852 
		68.338,182.852 	"/>
	<path fill="none" stroke="#ffffff" stroke-width="0.6708" stroke-miterlimit="3.8637" d="M93.294,215.896l-0.639,0.646
		c-0.296,0.343-0.354,3.3-0.048,3.439c0.145,0.084,0.835,0.406,0.95,0.359c0.124,0-0.09-0.375-0.129-0.518
		c-0.135-0.861-0.08-2.723,0.152-2.991l0.698-0.679L93.294,215.896L93.294,215.896z"/>
	<polygon fill="#ffffff" points="77.792,82.951 79.708,82.951 79.708,161.133 78.817,162.338 78.458,162.816 77.861,162.408 	"/>
	<path fill="none" stroke="#ffffff" stroke-width="0.6708" stroke-miterlimit="3.8637" d="M102.388,218.514l-0.642,0.651
		c-0.293,0.34-0.353,3.3-0.048,3.438c-0.009,0.052,0.834,0.334,0.95,0.293c0.124-0.004-0.071-0.31-0.129-0.453
		c-0.136-0.854-0.08-2.721,0.153-2.985l0.696-0.679L102.388,218.514L102.388,218.514z M104.623,219.053l-0.638,0.648
		c-0.297,0.342-0.354,3.307-0.047,3.439c0.144,0.082,0.833,0.407,0.949,0.363c0.125-0.004-0.09-0.38-0.129-0.52
		c-0.136-0.859-0.079-2.727,0.152-2.991l0.697-0.683L104.623,219.053L104.623,219.053z"/>
</g>
<g>
	<path fill="#E30613" d="M296.267,149.625h11.669v22.081h-11.669v62.769c-2.609,22.172-17.031,38.766-40.39,37.848v-22.074
		c9.952,0.336,15.882-3.461,16.917-15.256l0.061-63.285h-11.003v-22.078h11.003l0.006-14.845
		c0.551-23.392,14.897-40.593,40.786-37.614v21.883c-11.077-0.877-17.273,3.624-17.383,15.908v14.665L296.267,149.625
		L296.267,149.625z"/>
	<path fill="none" stroke="#ffffff" stroke-width="1.9164" stroke-miterlimit="3.8637" d="M448.076,272.063V96.755 M159.681,272.063
		V96.724"/>
	<path fill="#ffffff" d="M182.99,149.979c0-12.529,6.209-17.113,17.384-16.231v-21.881c-26.074-3.001-40.441,14.466-40.796,38.112
		v20.646v69.872h23.412v-69.872h16.497v-20.646H182.99L182.99,149.979z"/>
	<path fill="#ffffff" d="M240.624,240.496h18.268v-22.585h-16.32c-14.722,0-24.12-10.058-24.12-22.938
		c0-12.88,9.4-22.938,24.12-22.938h16.32v-22.407h-18.268c-27.846,0-45.588,19.939-45.588,45.348S212.777,240.496,240.624,240.496
		L240.624,240.496z"/>
	<path fill="#ffffff" d="M447.791,187.965c0-23.813-15.069-40.568-40.605-40.568c-11.88,0-22.166,4.939-29.082,12.875
		c-6.559-7.936-16.665-12.875-29.082-12.875c-24.998,0-41.137,17.463-41.137,40.568v52.567h23.408v-53.095
		c0-10.229,7.271-17.287,17.729-17.287c15.428,0,17.025,12.17,17.025,17.287v53.095h23.403v-53.095
		c0-10.229,7.443-17.287,17.732-17.287c15.43,0,17.202,12.17,17.202,17.287v53.095h23.404v-52.567H447.791L447.791,187.965z"/>
</g>

</svg>
